<svg xmlns="http://www.w3.org/2000/svg" width="50" height="50" viewBox="0 0 13.23 13.23">
  <defs/>
  <path d="M12.92 10.6a5.49 5.49 0 00-1.2-1.15c.35-.53.65-1.13.9-1.77l.17-.5-.33-.2a3.4 3.4 0 00-1.35-.4c.21-.7.38-1.44.48-2.18l.05-.57h-.34c-.46.03-.91.18-1.35.41.06-.78.06-1.57 0-2.32l-.06-.57-.32.2c-.42.29-.82.69-1.19 1.17-.1-.77-.26-1.52-.46-2.2l-.18-.5-.26.38a9.5 9.5 0 00-.88 1.79 9.7 9.7 0 00-.88-1.8L5.45.04l-.17.5c-.2.68-.36 1.42-.46 2.19a5.71 5.71 0 00-1.19-1.18l-.32-.19-.07.57c-.05.76-.05 1.55.01 2.32a3.5 3.5 0 00-1.35-.41h-.35l.06.58c.1.75.26 1.48.48 2.17-.47.04-.93.17-1.36.4l-.32.2.17.5c.25.65.55 1.25.9 1.77-.44.3-.85.7-1.2 1.16l-.26.37.26.38c.91 1.18 2.1 1.86 3.25 1.82 1.12-.13 2.23-.94 3.07-2.2-.86 1.09-2 1.8-3.08 1.7-.92-.07-1.87-.73-2.6-1.7a4.96 8.38 0 01.95-.97c.43.54.9.98 1.4 1.26 1.08.53 2.29.41 3.33-.29a3.1 3.1 0 01-3.24-.18A4.65 4.65 0 012.3 9.71c.36-.21.72-.35 1.1-.4l.02.02c.9 1.12 2.06 1.7 3.18 1.65-.97-.1-2-.67-2.77-1.7.44.04.89.18 1.31.42.45.56.94 1 1.46 1.28-.36-.26-.71-.6-1.04-1 .37.26.72.6 1.04 1 .84 1.26 1.95 2.07 3.07 2.2 1.13.07 2.35-.67 3.25-1.82l.26-.38zm-.98-2.9a4.96 8.38 0 01-.7 1.46c-.36-.18-.73-.3-1.1-.35.27-.44.5-.94.71-1.48a5.07 8.57 0 011.09.37zm-5.12 2.97c.34-.51.64-1.1.9-1.76.35-.47.73-.86 1.14-1.13-.24.63-.54 1.2-.88 1.7-.41.32-.8.71-1.16 1.19zm.82-.7c-.33.4-.68.74-1.04 1 .31-.39.66-.73 1.04-1zm-.97-1.79c.09-.74.23-1.45.44-2.1.05.74.05 1.5-.02 2.26-.2.68-.35 1.42-.44 2.16a15 15 0 00.02-2.32zm.56.21c.23-.64.52-1.23.84-1.72-.1.73-.26 1.44-.47 2.11a9.6 9.6 0 00-.86 1.78c.22-.68.38-1.41.5-2.17zm2.03-.8c0-.02 0-.03.02-.05a2.7 2.7 0 011.1-.25c-.2.55-.43 1.05-.69 1.5h-.03c-.42.04-.84.19-1.24.41.32-.47.6-1.02.84-1.61zm.6-2.5a5.07 8.57 0 011.1-.28 4.96 8.38 0 01-.37 1.78c-.37.04-.75.14-1.1.3.16-.56.28-1.17.37-1.8zm-.42-2.42a4.96 8.38 0 01.02 1.88c-.34.25-.67.56-.98.93.04-.63.04-1.28-.01-1.92a5.07 8.57 0 01.97-.9zM8.41 6.26V6.2c.3-.35.64-.64.99-.87-.07.63-.18 1.23-.34 1.8l-.02.02c-.4.28-.76.66-1.1 1.11.21-.63.37-1.3.47-2zm-.28-.32l-.02.03c-.3.5-.57 1.06-.8 1.67.07-.7.08-1.43.03-2.14v-.06c.2-.5.46-.97.75-1.38.06.62.07 1.26.04 1.88zM7.6 1.53a4.96 8.38 0 01.4 1.75c-.28.44-.52.92-.73 1.44-.1-.61-.23-1.22-.4-1.79a5.07 8.57 0 01.73-1.4zm-.57 3.83l-.01.04c-.2.64-.33 1.32-.41 2.03-.09-.7-.22-1.4-.41-2.03l-.02-.05c.1-.6.24-1.18.42-1.73.19.55.33 1.13.43 1.74zm-.42 5.62zm0 0zm0 0c-.18-.59-.32-1.23-.41-1.9.18.6.32 1.25.4 1.9zm-.15-.42a9.59 9.59 0 00-.86-1.8c-.22-.66-.38-1.37-.47-2.09.33.51.61 1.1.85 1.75.1.75.27 1.47.48 2.14zM6.1 8.31c-.07-.75-.08-1.5-.02-2.23.2.66.36 1.39.45 2.13a15 15 0 00.02 2.3c-.1-.76-.25-1.5-.45-2.2zM5.6 1.53a4.96 8.38 0 01.74 1.41c-.17.57-.3 1.17-.4 1.78a8.65 8.65 0 00-.74-1.45 5.07 8.57 0 01.4-1.74zm-.5 2.53a7.72 7.72 0 01.74 1.44c-.04.7-.03 1.43.03 2.15a9.03 9.03 0 00-.8-1.68l-.02-.04c-.04-.61-.02-1.24.04-1.87zm-.32 2.2c.1.7.25 1.37.46 2-.34-.45-.7-.82-1.1-1.11l-.02-.02a11.2 11.2 0 01-.34-1.79c.35.23.69.52 1 .87v.05zm-1.03-3.6a4.96 8.38 0 01.97.92c-.04.63-.05 1.27-.01 1.9-.3-.38-.64-.7-1-.94a5.07 8.57 0 01.04-1.87zM3.35 5.1c.08.62.2 1.22.37 1.8a3.15 3.15 0 00-1.12-.32 5.07 8.57 0 01-.36-1.77 4.96 8.38 0 011.1.29zm-1.4 4.06a5.07 8.57 0 01-.7-1.46 4.96 8.38 0 011.1-.37c.2.54.45 1.03.71 1.47-.37.05-.75.17-1.11.36zm1.58-.37H3.5a8.1 8.1 0 01-.68-1.48c.38 0 .75.08 1.1.24l.02.05c.23.59.52 1.13.84 1.6-.4-.22-.83-.36-1.25-.4zm1.67.69a8.08 8.08 0 01-.86-1.7c.4.3.8.69 1.15 1.16.25.64.55 1.22.89 1.73A5.66 5.66 0 005.2 9.48zm.63-.05c.29.47.55 1 .77 1.55a9.4 9.4 0 01-.77-1.55zm.77 1.55zm0 0zm0 0zm0 0zm0 0c-.05-.66-.05-1.34 0-2.02.04.67.04 1.36 0 2.02zm0 0zm0 0zm0 0c.09-.64.23-1.29.4-1.9-.09.66-.22 1.3-.4 1.9zm0 0zm0 0zm0 0c.21-.55.47-1.08.77-1.55a9.2 9.2 0 01-.77 1.55zm0 0zm0 0zm0 0zm0 0c.52-.3 1.02-.74 1.47-1.3a3 3 0 011.3-.4 4.15 4.15 0 01-2.77 1.7zm0 0c1.12.06 2.28-.53 3.18-1.65l.03-.04c.36.05.73.2 1.08.4-.36.51-.77.93-1.2 1.21-.98.57-2.1.58-3.09.08zm2.91 1.7c-1.03-.02-2.08-.66-2.91-1.7 1.04.7 2.25.82 3.33.29.5-.27.98-.71 1.4-1.27a5.07 8.57 0 01.95.98c-.78 1.03-1.78 1.67-2.77 1.7z"/>
</svg>
