<svg xmlns="http://www.w3.org/2000/svg" width="600" height="130" viewBox="0 0 158.75 34.4"><defs/><g font-weight="400" font-size="34.01" font-family="Rancho" letter-spacing="0" word-spacing="0"><path style="line-height:1.25;-inkscape-font-specification:'Rancho, Normal';font-variant-ligatures:normal;font-variant-caps:normal;font-variant-numeric:normal;font-feature-settings:normal;text-align:start" d="M30.26 27.24q.14-.44.24-1.46.13-1 .2-2.03.1-1.2.16-2.6.1-1.02.17-2.58.06-1.56.1-3.32.03-1.76.03-3.56 0-1.82-.03-3.38-.04-1.57-.14-2.7-.06-1.12-.2-1.52.64-.37 1.13-.53.5-.17.87-.24.4-.1.73-.06.26.03.53.1.23.06.43.2.2.1.3.3-.07 2.09-.17 4.21-.06 2.1-.16 3.86-.13 2.05-.27 3.95-.1 1.99-.2 3.45-.06 1.43-.13 2.53-.07 1.06-.1 1.92-.03.83-.03 1.66l1.9-.36q1.09-.23 2.48-.47 1.33-.2 2.23-.1.9.07 1.42.4.54.3.74.77.2.5.16 1.1l-.1 1.02q-.03.37-.03.57-.37-.24-1-.34-.63-.1-1.26-.16-.73-.07-1.53-.04-.86.04-1.9.14-.85.06-2.02.2-1.16.13-2.42.4-.9-.64-1.5-1-.36-.2-.63-.33z"/><path style="line-height:1.25;-inkscape-font-specification:'Rancho, Normal';font-variant-ligatures:normal;font-variant-caps:normal;font-variant-numeric:normal;font-feature-settings:normal;text-align:start" d="M52.48 23.88q.07.23.2.43.1.17.27.34.2.13.46.16-.23.47-.46.63-.14.1-.23.14-.3.1-.9.1-.6 0-1.16-.37-.2-.17-.37-.5-.17-.26-.3-.73-.1-.5-.16-1.26-.47 1-1.07 1.6-.56.56-1.13.82-.63.37-1.3.44-.82.06-1.59-.27-.73-.37-1.26-1.06-.5-.73-.76-1.76-.27-1.03-.17-2.33.1-1.36.53-2.42.44-1.07 1.03-1.9.6-.83 1.27-1.4.66-.59 1.26-.95.63-.4 1.06-.57.47-.2.6-.23.36-.1.63-.07.26.04.46.3l.17.23.17.37q.1.2.16.46-.8.37-1.5.83-.69.44-1.29 1.07-.56.63-1 1.53-.43.9-.66 2.19-.33 1.62.17 2.62.53 1 1.43.83.53-.16 1.03-.63.43-.4.9-1.2.49-.8.92-2.19l.27-3.12q.13-1.16.23-1.76.13-.7.2-.93.1-.17.4-.3.3-.16.66-.26.37-.1.67-.1.3-.04.4 0 .06.03.06.83 0 .76-.06 1.96l-.1 2.55-.14 2.6-.06 2.15q0 .9.06 1.13z"/><path style="line-height:1.25;-inkscape-font-specification:'Rancho, Normal';font-variant-ligatures:normal;font-variant-caps:normal;font-variant-numeric:normal;font-feature-settings:normal;text-align:start" d="M58.83 24.68q-.04.2-.37.43-.3.2-.73.37-.4.16-.76.2-.37.06-.5-.07t-.43-.5q-.3-.36-.37-1.2-.07-.86-.07-2.15 0-1.33-.03-2.93v-1.32q0-.6-.03-1.4 0-.8-.03-1.66.3-.17.6-.3.33-.17.6-.27.29-.13.56-.2.7-.2 1.06-.23.36-.03.43.24.03.2-.03.96-.07.66-.17 2.02-.1 1.33-.33 3.72.43-1.06.7-1.82.3-.77.5-1.23.2-.57.36-.9.17-.43.43-.96l.53-1 .53-.83q.27-.36.4-.43.1-.07.6 0t1.06.33q.57.24 1.1.7.53.43.7 1.06.2.73.13 1.93-.03 1.2-.17 2.46-.1 1.26-.16 2.39-.07 1.13.13 1.73.07.33.2.6.07.26.17.5.13.2.26.3-.8.36-1.3.52-.5.17-.76.23-.33.1-.46.07-.3-.1-.53-.5-.2-.4-.37-1.26-.07-.27-.07-.86l.1-1.4.14-1.63q.1-.86.13-1.59.07-.76.1-1.3.03-.56 0-.76-.17-.6-.47-.83-.3-.26-.46-.07-.43.5-.93 1.63-.47 1.1-.9 2.43-.43 1.3-.73 2.59-.3 1.3-.36 2.19z"/><path style="line-height:1.25;-inkscape-font-specification:'Rancho, Normal';font-variant-ligatures:normal;font-variant-caps:normal;font-variant-numeric:normal;font-feature-settings:normal;text-align:start" d="M71.31 25.87q-.7 0-1.42-.36-.73-.37-1.37-1.1-.63-.76-1.02-1.86-.4-1.13-.4-2.62 0-2.2.56-3.62.57-1.46 1.36-2.33.83-.9 1.8-1.26.96-.36 1.76-.36.83 0 1.36.3.56.26.93.63v-.63q.2-.17.43-.3.27-.14.53-.2.27-.1.57-.1h.5l.4.06q.23.04.33.17-.2 4.35-.34 7.04l-.2 4.19q-.1 1.76-.13 2.55-.07 1.4-.36 2.76-.3 1.4-.93 2.5-.64 1.09-1.67 1.75-1.02.67-2.52.67-1.3 0-2.1-.5-.76-.5-1.19-1.23-.4-.73-.53-1.56-.13-.8-.13-1.46 0-.17.16-.5.2-.33.54-.7.36-.33.9-.6.52-.26 1.19-.33-.3.9-.37 1.63-.06.4-.03.8 0 1.1.43 1.82.43.73 1.33.73.96 0 1.56-.83.6-.8.9-1.96.33-1.13.43-2.39.13-1.23.13-2.09v-.96q-.2.36-.5.76-.26.4-.66.73-.4.33-.96.53-.53.23-1.27.23zm1.37-11.62q-.57 0-1.1.5-.5.5-.9 1.33-.4.8-.63 1.82-.23 1.03-.23 2.06 0 .67.07 1.36.1.7.33 1.3.26.56.66.93t1.07.37q.5-.04.93-.4.36-.3.73-.97.4-.66.63-1.89.26.27.4.5.16.23.26.43.03-.27.03-.63.04-.37.04-.83 0-.9-.1-1.93-.1-1.06-.37-1.92-.23-.87-.7-1.43-.43-.6-1.12-.6z"/><path style="line-height:1.25;-inkscape-font-specification:'Rancho, Normal';font-variant-ligatures:normal;font-variant-caps:normal;font-variant-numeric:normal;font-feature-settings:normal;text-align:start" d="M91.38 19.56q-.57.47-.64 1.67-.03 1.16.4 2.39.47 1.2 1.4 2.12.93.93 2.32.93.9 0 1.53-.43.66-.43 1.06-1.06.44-.67.63-1.46.2-.8.2-1.57 0-1.1-.43-1.82-.4-.73-1.1-1.26-.66-.57-1.56-.93l-1.76-.8q-.83-.33-1.99-.83-1.16-.53-2.22-1.36-1.07-.87-1.83-2.1-.73-1.26-.73-3.08 0-1.2.63-2.43.63-1.23 1.8-2.22 1.16-1.03 2.78-1.66 1.66-.64 3.72-.64 2.03 0 3.3.37 1.25.36 1.95.96.7.57.93 1.26.27.67.27 1.27t-.37 1.23q-.36.6-.86 1.13-.5.5-1.03.9-.53.36-.87.49.17-.43.34-1.2.16-.76-.1-1.52-.24-.77-1.17-1.33-.9-.57-2.92-.57-1.16 0-2.26.37-1.1.36-1.96.96-.83.57-1.32 1.3-.5.73-.5 1.5 0 .72.5 1.35.53.6 1.39 1.17.9.53 2.03 1.06 1.16.53 2.42 1.06 1.23.53 2.43 1.16 1.2.6 2.12 1.4.96.8 1.53 1.8.56.99.56 2.28 0 1.4-.53 2.7-.5 1.26-1.46 2.22-.93.96-2.3 1.53-1.35.6-3.08.6-1.53 0-2.89-.5t-2.4-1.3q-.99-.8-1.58-1.76-.6-.96-.6-1.9 0-.99.43-1.69.46-.7 1.13-1.1.66-.42 1.36-.59.73-.17 1.3-.07z"/><path style="line-height:1.25;-inkscape-font-specification:'Rancho, Normal';font-variant-ligatures:normal;font-variant-caps:normal;font-variant-numeric:normal;font-feature-settings:normal;text-align:start" d="M113.73 23.88q.06.23.2.43.1.17.26.34.2.13.47.16-.23.47-.47.63-.13.1-.23.14-.3.1-.9.1-.6 0-1.16-.37-.2-.17-.36-.5-.17-.26-.3-.73-.1-.5-.17-1.26-.46 1-1.06 1.6-.57.56-1.13.82-.63.37-1.3.44-.83.06-1.6-.27-.72-.37-1.25-1.06-.5-.73-.77-1.76-.26-1.03-.16-2.33.1-1.36.53-2.42.43-1.07 1.03-1.9.6-.83 1.26-1.4.66-.59 1.26-.95.63-.4 1.07-.57.46-.2.6-.23.36-.1.62-.07.27.04.47.3l.17.23.16.37q.1.2.17.46-.8.37-1.5.83-.7.44-1.3 1.07-.56.63-.99 1.53-.43.9-.66 2.19-.34 1.62.16 2.62.53 1 1.43.83.53-.16 1.03-.63.43-.4.9-1.2.5-.8.93-2.19l.26-3.12q.14-1.16.24-1.76.13-.7.2-.93.1-.17.4-.3.3-.16.66-.26.36-.1.66-.1.3-.04.4 0 .07.03.07.83 0 .76-.07 1.96-.03 1.16-.1 2.55l-.13 2.6-.07 2.15q0 .9.07 1.13z"/><path style="line-height:1.25;-inkscape-font-specification:'Rancho, Normal';font-variant-ligatures:normal;font-variant-caps:normal;font-variant-numeric:normal;font-feature-settings:normal;text-align:start" d="M120.07 24.68q-.03.2-.36.43-.3.2-.73.37-.4.16-.77.2-.36.06-.5-.07-.13-.13-.43-.5-.3-.36-.36-1.2-.07-.86-.07-2.15 0-1.33-.03-2.93v-1.32q0-.6-.04-1.4 0-.8-.03-1.66.3-.17.6-.3.33-.17.6-.27.3-.13.56-.2.7-.2 1.06-.23.37-.03.44.24.03.2-.04.96l-.16 2.02q-.1 1.33-.34 3.72.44-1.06.7-1.82.3-.77.5-1.23.2-.57.36-.9.17-.43.44-.96.26-.53.53-1l.53-.83q.27-.36.4-.43.1-.07.6 0t1.06.33q.56.24 1.1.7.53.43.7 1.06.2.73.12 1.93-.03 1.2-.16 2.46-.1 1.26-.17 2.39-.06 1.13.14 1.73.06.33.2.6.06.26.16.5.13.2.27.3-.8.36-1.3.52-.5.17-.76.23-.33.1-.47.07-.3-.1-.53-.5-.2-.4-.36-1.26-.07-.27-.07-.86.03-.63.1-1.4l.13-1.63q.1-.86.13-1.59.07-.76.1-1.3.04-.56 0-.76-.16-.6-.46-.83-.3-.26-.47-.07-.43.5-.93 1.63-.46 1.1-.9 2.43-.42 1.3-.72 2.59-.3 1.3-.37 2.19z"/></g></svg>